<svg width="93" height="98" viewBox="0 0 93 98" fill="none" xmlns="http://www.w3.org/2000/svg">
<path fill-rule="evenodd" clip-rule="evenodd" d="M6.40245 0.295434C4.4352 0.817651 2.22611 2.46298 1.22388 4.15234C0.0613954 6.1118 0.00306779 6.61449 0.00306779 14.6646V22.0323L0.569486 22.5919C1.45312 23.4648 2.95627 23.3339 3.53509 22.3335C3.71802 22.0172 3.80677 20.0038 3.87866 14.5371L3.97555 7.16715L4.51271 6.26437C4.80823 5.7678 5.34926 5.13609 5.71512 4.86043C7.16013 3.77159 5.84418 3.81714 35.874 3.81714H63.5446L63.6022 10.6607C63.6652 18.1586 63.6621 18.1377 64.8897 19.2794C66.1033 20.4083 66.4525 20.4626 72.5252 20.4672L78.0963 20.4714V41.9583V63.445L71.3278 56.7607L64.5593 50.0764L65.0344 49.1501C65.6493 47.9516 66.5701 45.2293 66.9705 43.4266C67.4667 41.1926 67.5576 36.6198 67.1532 34.2292C66.2039 28.6163 63.5113 23.5986 59.3518 19.6914C55.8312 16.3844 51.6979 14.2199 46.8978 13.1698C44.226 12.5853 39.184 12.5363 36.6275 13.07C27.4053 14.9949 20.1213 21.1989 17.0791 29.7197C16.0223 32.6796 15.6436 34.9362 15.6436 38.2743C15.6436 40.5779 15.7368 41.6775 16.0602 43.1917C17.7758 51.2233 22.7106 57.608 29.9996 61.2266C36.7205 64.5632 44.8276 64.7856 51.7793 61.8244L53.5832 61.056L65.8398 73.1623L78.0963 85.2689V87.6761C78.0963 90.6457 77.8156 91.6 76.5976 92.7694C75.0263 94.2779 77.7322 94.1714 40.983 94.1714C5.39325 94.1714 7.16943 94.2239 5.71512 93.1281C5.34926 92.8525 4.80823 92.2208 4.51271 91.7242L3.97555 90.8214L3.87866 64.245L3.78177 37.6686L3.14889 37.11C2.80086 36.8028 2.2951 36.5514 2.02516 36.5514C1.38259 36.5514 0.454187 37.0336 0.202661 37.498C0.0685655 37.7454 0.00306779 46.5241 0.00306779 64.2613C0.00306779 92.8506 -0.0459586 91.4304 1.0113 93.4808C1.95152 95.3043 4.19976 97.0551 6.36118 97.6472C7.58935 97.9837 9.18668 98 40.8115 98C61.5751 98 74.3471 97.9301 74.9718 97.8132C78.8627 97.0842 81.9719 93.3992 81.9719 89.5165C81.9719 88.6968 82.0146 88.597 82.3111 88.7222C85.5361 90.0831 89.203 89.0193 91.3865 86.0891C93.1621 83.7064 93.4931 80.7678 92.2756 78.1975C91.7381 77.0627 91.093 76.3393 86.819 72.079L81.9719 67.2476V42.5361V17.8245L77.6652 12.8788C75.2964 10.1586 71.9341 6.29614 70.1934 4.29572C68.4529 2.29529 66.7937 0.508302 66.5069 0.324531C66.0161 0.0105878 64.2411 -0.00874646 36.7243 0.00216497C11.6029 0.0121193 7.31341 0.0536593 6.40245 0.295434ZM71.9713 12.2503L75.7192 16.5471L71.8262 16.599C69.6851 16.6277 67.8219 16.6088 67.6859 16.5573C67.4946 16.4847 67.4384 15.4106 67.4384 11.8206V7.17787L67.831 7.56551C68.0469 7.77895 69.9101 9.88696 71.9713 12.2503ZM44.2818 16.6637C52.6405 17.6756 59.8369 23.5389 62.4647 31.4786C64.5622 37.8158 63.5731 44.958 59.8469 50.3831L59.0902 51.4848L57.9487 49.7991C56.0616 47.0119 52.7982 44.2379 49.8731 42.9344C49.2491 42.6563 48.705 42.4013 48.6639 42.3674C48.6228 42.3337 49.0712 41.7916 49.6605 41.1628C51.7741 38.9077 52.7354 36.5068 52.7339 33.4886C52.7319 30.188 51.7262 27.7432 49.4169 25.426C47.1418 23.143 44.4058 22.0029 41.2028 22.0029C39.6659 22.0029 37.2908 22.5241 36.1052 23.1216C30.9299 25.7298 28.4166 31.791 30.3002 37.1213C30.8592 38.7037 32.2225 40.8149 33.2739 41.7269C33.6487 42.0519 33.9242 42.3341 33.8864 42.354C33.8487 42.3737 32.9892 42.7962 31.9767 43.2926C28.9214 44.7905 26.0312 47.339 24.2629 50.0946C23.976 50.542 23.6975 50.9072 23.6442 50.9065C23.4473 50.9038 22.0909 48.6589 21.4219 47.2286C18.8637 41.7589 18.889 34.6659 21.4865 29.1902C25.5956 20.5283 34.7321 15.5075 44.2818 16.6637ZM44.4581 26.561C46.0171 27.2817 47.266 28.4921 48.0837 30.075C48.8914 31.6384 49.0813 33.979 48.5385 35.6833C47.1551 40.0282 42.0283 42.217 37.9173 40.2175C36.3033 39.4326 34.6959 37.7542 34.0918 36.2231C33.5047 34.7348 33.463 32.2897 34.0006 30.8585C34.7834 28.7735 36.736 26.9038 38.8559 26.2089C40.5759 25.6454 42.7763 25.7836 44.4581 26.561ZM1.06886 28.1496C-0.113394 28.8214 -0.353487 30.2169 0.542551 31.2075C1.43859 32.1982 2.97294 31.9836 3.60311 30.7797C4.21797 29.6051 3.46494 28.2103 2.11391 28.0216C1.75232 27.9708 1.28201 28.0286 1.06886 28.1496ZM45.1538 45.3813C49.3877 46.3332 53.4892 49.4415 55.5202 53.2371L56.2029 54.5128L55.3774 55.2153C53.1935 57.0739 49.1427 58.983 46.0552 59.6086C41.0768 60.6174 35.9085 59.9011 31.3766 57.5741C29.4305 56.5749 26.5509 54.5025 26.5509 54.1008C26.5509 53.6092 28.0566 51.3753 29.2421 50.1078C33.3508 45.7155 39.0759 44.0148 45.1538 45.3813ZM66.0826 57.1306L69.664 60.6726L66.904 63.3991L64.144 66.1256L60.5209 62.5465L56.8978 58.9673L57.4691 58.536C58.4345 57.8071 61.1199 55.1774 61.7278 54.366C62.0444 53.9433 62.3479 53.5957 62.4021 53.5932C62.4566 53.5907 64.1126 55.1824 66.0826 57.1306ZM88.7697 79.91C89.4623 81.3687 89.118 82.8909 87.789 84.2459C86.4853 85.5749 85.2288 85.8112 83.6191 85.0298C82.9819 84.7204 67.0509 69.1291 67.0509 68.8148C67.0509 68.708 68.249 67.4348 69.7136 65.9851L72.3763 63.3497L80.3913 71.2471C85.7084 76.4859 88.5287 79.402 88.7697 79.91ZM29.414 70.9242C28.3079 71.5172 28.1308 72.9816 29.0551 73.8947L29.6215 74.4543H41.4539H53.2863L53.9147 73.8995C54.4349 73.4405 54.5434 73.2062 54.5434 72.54C54.5434 71.8738 54.4349 71.6395 53.9147 71.1805L53.2863 70.6257L41.6142 70.6334C31.6913 70.6399 29.863 70.6835 29.414 70.9242ZM20.8828 80.7867C19.8744 81.367 19.7543 83.0115 20.6588 83.8515L21.1557 84.3129L27.0877 84.3688C33.3253 84.4277 33.8411 84.3716 34.4067 83.5739C34.5623 83.3544 34.6897 82.814 34.6897 82.3729C34.6897 81.7127 34.5844 81.4837 34.0934 81.0756L33.4973 80.58L27.3595 80.5857C23.5524 80.5894 21.0933 80.6658 20.8828 80.7867ZM40.4546 80.7867C40.268 80.8941 39.9769 81.2466 39.8076 81.5699C38.9553 83.1982 40.7598 84.9802 42.4083 84.1381C43.1605 83.7537 43.4098 83.3044 43.4098 82.3325C43.4098 81.7175 43.2952 81.4761 42.8135 81.0756C42.1802 80.5492 41.098 80.4167 40.4546 80.7867ZM49.1747 80.7867C48.1663 81.367 48.0461 83.0115 48.9507 83.8515L49.4475 84.3129L55.3795 84.3688C61.6171 84.4277 62.133 84.3716 62.6986 83.5739C62.8542 83.3544 62.9815 82.814 62.9815 82.3729C62.9815 81.7127 62.8763 81.4837 62.3853 81.0756L61.7892 80.58L55.6514 80.5857C51.8442 80.5894 49.3851 80.6658 49.1747 80.7867Z" fill="#44ABF4"/>
</svg>
