<svg width="99" height="88" viewBox="0 0 99 88" fill="none" xmlns="http://www.w3.org/2000/svg">
<path fill-rule="evenodd" clip-rule="evenodd" d="M25.4532 0.234209C25.0426 0.379423 24.4592 0.731597 24.157 1.01688C22.9846 2.12371 23.0098 1.87502 23.0098 12.4099V22.0423L17.0591 22.1002L11.1085 22.158L9.8329 22.7773C8.32025 23.5116 7.13187 24.7084 6.4118 26.2219L5.89746 27.3034L5.8468 50.6801L5.79633 74.0565L3.46191 74.1202L1.12748 74.1837L0.563836 74.8061C0.00599412 75.4218 0 75.4529 0 77.7675C0 81.4204 0.693387 83.3779 2.68112 85.337C3.92771 86.5656 5.69927 87.4816 7.43157 87.7934C8.1967 87.9312 13.9996 88 24.8536 88H41.1283L41.7705 87.5712C42.8948 86.8204 43.0033 85.5474 42.0197 84.6488L41.5158 84.1886H25.0468C7.04602 84.1886 7.46657 84.213 5.88083 83.0801C4.77984 82.2936 4.02671 80.8126 3.90992 79.2052L3.81517 77.8998H49.5H95.1848L95.0901 79.2052C94.9733 80.8126 94.2202 82.2936 93.1192 83.0801C91.5334 84.213 91.954 84.1886 73.9532 84.1886H57.4842L56.9803 84.6488C55.9967 85.5474 56.1052 86.8204 57.2295 87.5712L57.8717 88H74.1464C85.0004 88 90.8033 87.9312 91.5684 87.7934C93.3071 87.4805 95.0742 86.5658 96.2937 85.3473C98.3252 83.3177 99 81.4274 99 77.7675C99 75.4529 98.994 75.4218 98.4362 74.8061L97.8725 74.1837L95.5381 74.1202L93.2037 74.0565L93.1532 50.6759L93.1025 27.2952L92.4741 26.0372C91.7291 24.5458 90.5154 23.3748 88.9791 22.6649L87.8818 22.158L81.9411 22.1002L76.0003 22.0425L75.9469 12.1605L75.8936 2.27846L75.293 1.54628C74.9627 1.14361 74.3971 0.642601 74.0361 0.432973C73.3907 0.0581216 72.9937 0.0510704 49.79 0.0110506C30.1012 -0.0230614 26.0766 0.0139095 25.4532 0.234209ZM72.123 15.2921V26.8165L62.7772 26.8693L53.4316 26.9222L51.4657 28.6097L49.5 30.297L47.5343 28.6097L45.5684 26.9222L36.2228 26.8693L26.877 26.8165V15.2921V3.76795H49.5H72.123V15.2921ZM35.0193 9.36996C34.1577 9.84047 33.7689 11.1232 34.2304 11.973C34.7486 12.9275 34.5514 12.9153 49.5 12.9153C64.4486 12.9153 64.2514 12.9275 64.7696 11.973C65.2437 11.1001 64.798 9.73013 63.9107 9.33165C63.1347 8.9831 35.6607 9.0195 35.0193 9.36996ZM34.5964 18.4272C33.8247 19.1878 33.8244 20.1134 34.5955 20.9639L35.1597 21.5863H49.5H63.8403L64.4045 20.9639C65.1756 20.1134 65.1753 19.1878 64.4036 18.4272L63.8384 17.8702H49.5H35.1616L34.5964 18.4272ZM23.0432 27.0901C23.1329 28.4777 23.6142 29.3381 24.7181 30.0838L25.3979 30.5431L34.7014 30.5959L44.0047 30.6488L46.1239 32.4776C47.2895 33.4834 48.526 34.4256 48.8716 34.5712C49.775 34.9519 50.3508 34.6514 52.8838 32.4781L55.0107 30.653L64.3063 30.5981L73.6021 30.5431L74.2819 30.0838C75.3858 29.3381 75.8671 28.4777 75.9568 27.0901L76.0353 25.8741L81.4751 25.8772C86.7598 25.8802 86.9371 25.8926 87.6846 26.3099C88.116 26.5508 88.6454 27.0726 88.8898 27.4978L89.3257 28.2562L89.3289 44.8835L89.332 61.5107H74.2336H59.1351L59.9408 60.6086C60.3838 60.1125 61.0553 59.162 61.433 58.4965C65.2685 51.7372 62.6003 43.1884 55.5908 39.7779C53.437 38.7302 51.9313 38.386 49.5 38.386C47.0718 38.386 45.5667 38.7294 43.4092 39.7754C38.5299 42.1414 35.4907 47.2999 35.8285 52.6425C36.0124 55.5514 37.1938 58.5047 38.9776 60.5144L39.862 61.5107H24.762H9.66178L9.71322 44.6929L9.76465 27.8751L10.2152 27.2525C11.1597 25.9475 11.4558 25.892 17.5249 25.8825L22.9647 25.8741L23.0432 27.0901ZM51.0469 42.2717C55.662 42.9923 59.3708 47.237 59.3584 51.784C59.3466 56.1841 56.2877 60.106 51.9883 61.2338C50.6586 61.5828 48.3414 61.5828 47.0117 61.2338C42.6707 60.0952 39.6387 56.1788 39.6387 51.7105C39.6387 48.2352 41.9866 44.6582 45.2745 43.1241C47.3038 42.1774 48.9168 41.9392 51.0469 42.2717ZM32.1951 65.6556C31.4045 67.5775 31.3242 68.0757 31.3242 71.0692V74.0884H20.4961H9.66797V69.7053V65.3221H21.0002C31.7162 65.3221 32.3249 65.3402 32.1951 65.6556ZM61.7342 65.952C62.2418 66.246 62.8944 66.8397 63.1844 67.2713C63.6945 68.0301 63.7138 68.155 63.7736 71.072L63.8353 74.0884H49.5133H35.1914V71.2597C35.1914 68.6665 35.2289 68.3614 35.6414 67.5913C36.1402 66.6598 37.3089 65.7479 38.3089 65.5093C38.668 65.4237 43.8781 65.3681 49.8867 65.3856L60.8115 65.4174L61.7342 65.952ZM89.332 69.7053V74.0884H78.5039H67.6758V71.0692C67.6758 68.0757 67.5955 67.5775 66.8049 65.6556C66.6751 65.3402 67.2838 65.3221 77.9998 65.3221H89.332V69.7053ZM48.4108 84.5263C46.9361 85.7038 47.6644 87.8961 49.5307 87.8961C50.555 87.8961 51.4336 87.0121 51.4336 85.9813C51.4336 84.5524 49.5275 83.6348 48.4108 84.5263Z" fill="#0CAEC1"/>
</svg>
