<svg width="84" height="98" viewBox="0 0 84 98" fill="none" xmlns="http://www.w3.org/2000/svg">
<path fill-rule="evenodd" clip-rule="evenodd" d="M18.7641 0.293422C15.2918 1.23094 12.6498 3.90664 11.7404 7.40693C10.4793 12.2609 13.6792 17.4721 18.7641 18.8451L19.7618 19.1144L17.8921 19.1271C15.3292 19.1443 13.4227 19.5707 11.2846 20.6049C9.78885 21.3283 9.21261 21.7486 7.82337 23.1294C6.40682 24.5376 6.02591 25.059 5.28451 26.6046C3.83741 29.6212 3.79579 30.0406 3.85918 40.9603C3.91283 50.1906 3.92467 50.458 4.32449 51.3248C4.55017 51.8143 5.09586 52.5767 5.53711 53.019C6.68406 54.1688 7.77945 54.6033 9.78542 54.7044L11.4561 54.7886V68.1171C11.4561 75.7635 11.5319 81.7104 11.6337 82.0666L11.8112 82.6873H10.497C9.77434 82.6873 8.96898 82.7849 8.70778 82.9044C8.08419 83.1892 0 95.3371 0 95.9893C0 96.694 0.35724 97.3287 0.952766 97.6813C1.44881 97.9751 3.90863 98 32.4589 98C61.0093 98 63.4691 97.9751 63.9651 97.6813C64.5607 97.3287 64.9179 96.694 64.9179 95.9893C64.9179 95.3371 56.8337 83.1892 56.2101 82.9044C55.9489 82.7849 55.2235 82.6873 54.5984 82.6873H53.4618V56.6558V30.6242H67.9912C81.2043 30.6242 82.5693 30.5953 83.0586 30.3055C83.9281 29.7906 84.2478 28.745 83.7949 27.8966C83.6757 27.6735 82.0774 25.612 80.2427 23.3153L76.9071 19.1397L80.2427 14.9641C82.0774 12.6674 83.6757 10.6059 83.7949 10.3828C84.2478 9.53443 83.9281 8.48877 83.0586 7.97388C82.5693 7.68409 81.2056 7.65518 68.0128 7.65518H53.5049L53.4282 6.29293C53.3572 5.03289 53.3033 4.88761 52.712 4.35798C52.1737 3.87582 51.9639 3.80271 51.3831 3.89535C50.9497 3.96425 50.4981 4.22227 50.1682 4.58901L49.6431 5.173V13.1157V21.0586L48.9271 20.6178C47.8515 19.9555 46.7995 19.5415 45.6552 19.3298C45.0545 19.2187 39.9701 19.1345 33.4354 19.1271C23.4546 19.1158 22.3518 19.0853 23.2416 18.8451C28.3265 17.4721 31.5264 12.2609 30.2653 7.40693C28.9215 2.23526 23.6494 -1.02557 18.7641 0.293422ZM23.3342 4.35702C24.4496 4.85162 25.6993 6.10133 26.2211 7.24385C26.7857 8.47996 26.7857 10.6586 26.2211 11.8947C25.7016 13.0322 24.4572 14.2796 23.3225 14.8005C22.0895 15.3665 19.9162 15.3665 18.6832 14.8005C16.2304 13.6748 14.8387 10.85 15.4592 8.25678C16.2854 4.80416 20.0917 2.91916 23.3342 4.35702ZM77.482 12.2968C72.6017 18.3448 72.3934 18.6581 72.6278 19.5947C72.7243 19.98 74.1131 21.8077 77.482 25.9825L78.1384 26.796H65.8H53.4618V19.1397V11.4834H65.8H78.1384L77.482 12.2968ZM45.5676 23.2531C46.8402 23.6321 48.0074 24.506 48.6976 25.5972C49.0077 26.0872 49.2612 26.5552 49.2612 26.6374C49.2612 26.7195 44.4516 26.8104 38.5731 26.8393L27.8849 26.8917L27.3556 27.4225L26.8264 27.9531L26.7309 54.7417L26.6354 81.5303L26.1125 82.0545C25.6632 82.5047 25.4007 82.5895 24.2547 82.6544L22.9198 82.73L22.8683 69.2943L22.8167 55.8585L22.17 55.2793C21.6242 54.7905 21.4156 54.7172 20.8335 54.81C20.4001 54.8789 19.9485 55.1369 19.6186 55.5037L19.0935 56.0877V69.4091V82.7306L17.7549 82.6548C16.6049 82.5895 16.3427 82.5051 15.8932 82.0545L15.3703 81.5303L15.2748 56.6357L15.1793 31.7413L14.5326 31.1619C13.9885 30.6745 13.7779 30.6003 13.2062 30.6931C12.8325 30.754 12.3073 31.0237 12.0392 31.2924L11.5516 31.7811L11.4987 41.3685L11.4458 50.9562L10.1123 50.8806C8.96783 50.8157 8.70492 50.7309 8.25584 50.2809L7.73287 49.7566L7.6796 40.726C7.64485 34.8314 7.69754 31.3517 7.8312 30.7061C8.56133 27.1806 11.3879 24.2229 14.9454 23.2624C16.4731 22.85 44.1848 22.8415 45.5676 23.2531ZM49.6431 56.6558V82.6873H39.9188H30.1945L30.372 82.0666C30.4774 81.6977 30.5496 71.1316 30.5496 56.035V30.6242H40.0963H49.6431V56.6558ZM20.3132 47.2729C19.7121 47.5164 19.0935 48.4036 19.0935 49.0222C19.0935 49.7884 19.971 50.7079 20.8335 50.8452C21.4149 50.9378 21.6241 50.8647 22.1656 50.3797C22.702 49.8992 22.8081 49.6715 22.8081 48.9994C22.8081 48.3333 22.7012 48.099 22.1887 47.64C21.5615 47.0781 21.0443 46.9768 20.3132 47.2729ZM56.8677 90.2958L59.3781 94.0761L45.9185 94.1253C38.5158 94.1523 26.4021 94.1523 18.9994 94.1253L5.53979 94.0761L8.0502 90.2958L10.5604 86.5155H32.4589H54.3575L56.8677 90.2958Z" fill="#A84DBF"/>
</svg>
