<svg width="89" height="82" viewBox="0 0 89 82" fill="none" xmlns="http://www.w3.org/2000/svg">
<path fill-rule="evenodd" clip-rule="evenodd" d="M27.182 0.247476C24.028 1.01211 21.3699 3.75 20.7097 6.91398C20.5966 7.45645 20.5177 9.79274 20.5177 12.6027V17.371H14.183C7.32547 17.371 6.69081 17.4334 4.87702 18.2857C2.64927 19.3328 0.719383 21.8096 0.203068 24.2842C-0.0676893 25.5817 -0.0676893 73.7773 0.203068 75.0749C0.88222 78.3301 3.67077 81.1173 6.92751 81.7961C8.23194 82.068 80.7681 82.068 82.0725 81.7961C85.3292 81.1173 88.1178 78.3301 88.7969 75.0749C89.0677 73.7773 89.0677 25.5817 88.7969 24.2842C88.1178 21.029 85.3292 18.2418 82.0725 17.5629C81.4978 17.4431 78.7702 17.371 74.817 17.371H68.4823V12.6027C68.4823 9.79274 68.4034 7.45645 68.2903 6.91398C67.6111 3.65881 64.8226 0.871587 61.5659 0.19276C60.1789 -0.0962794 28.3913 -0.0457321 27.182 0.247476ZM61.3179 3.73992C62.8924 4.20718 64.4088 5.71839 64.756 7.16602L64.8706 7.6437H44.5H24.1294L24.244 7.16602C24.4238 6.41649 25.2352 5.2084 25.9406 4.64022C26.2948 4.355 26.9986 3.97859 27.5047 3.80385C28.3698 3.50525 29.3835 3.4858 44.4249 3.48059C58.2723 3.47555 60.5452 3.51046 61.3179 3.73992ZM65.0066 14.2444V17.371H58.3854H51.7642L51.1733 17.9616C50.412 18.7226 50.3863 19.4042 51.0896 20.1909L51.5965 20.7582L66.5999 20.845L81.6031 20.9319L82.5905 21.4165C83.7092 21.9656 84.5255 22.8072 85.0604 23.9628C85.4116 24.7215 85.4285 25.0521 85.4768 32.169L85.5273 39.5847L84.9554 39.7436C84.641 39.831 75.4136 42.6184 64.4502 45.9376L44.5167 51.9727L24.3058 45.8515C13.1899 42.4848 3.95491 39.692 3.78391 39.6455C3.49021 39.5654 3.47561 39.148 3.52323 32.157C3.57154 25.0523 3.5884 24.7214 3.93962 23.9628C4.47453 22.8072 5.2908 21.9656 6.40945 21.4165L7.3969 20.9319L22.3424 20.845C30.5624 20.7973 37.4276 20.6901 37.5985 20.6069C37.9679 20.4269 38.4175 19.6133 38.4175 19.1249C38.4175 18.9334 38.324 18.572 38.2099 18.3215C37.7874 17.3944 37.5971 17.371 30.519 17.371H23.9934V14.2444V11.1177H44.5H65.0066V14.2444ZM43.353 17.9616C42.5513 18.7629 42.5513 19.4532 43.353 20.2544C43.9852 20.8864 44.5115 20.9906 45.2869 20.6375C46.4815 20.0934 46.5166 18.2247 45.3437 17.6185C44.5633 17.2152 44.0031 17.3118 43.353 17.9616ZM35.3085 29.7726C34.4787 30.2322 34.4332 30.5223 34.4266 35.4012C34.4199 40.3636 34.4801 40.7283 35.3714 41.1343C35.7053 41.2864 38.1459 41.3418 44.5 41.3418C50.8541 41.3418 53.2947 41.2864 53.6286 41.1343C54.5177 40.7294 54.5795 40.3589 54.5795 35.436C54.5795 30.5131 54.5177 30.1426 53.6286 29.7377C52.936 29.4223 35.8822 29.4547 35.3085 29.7726ZM51.1038 35.436V37.8678H44.5H37.8962V35.436V33.0042H44.5H51.1038V35.436ZM24.1077 49.4306L44.5221 55.6087L64.7136 49.4933C75.8188 46.1298 85.0435 43.3401 85.2128 43.2941C85.5058 43.2142 85.5183 43.959 85.4735 58.908L85.4264 74.6057L84.9415 75.5927C84.3922 76.7108 83.5502 77.5267 82.394 78.0614L81.6031 78.4272H44.5H7.3969L6.606 78.0614C5.44981 77.5267 4.60782 76.7108 4.05849 75.5927L3.57363 74.6057L3.52653 58.9291C3.50064 50.3069 3.52775 43.2526 3.58649 43.2526C3.64523 43.2526 12.8798 46.0327 24.1077 49.4306Z" fill="#0CAEC1"/>
</svg>
