<svg width="98" height="98" viewBox="0 0 98 98" fill="none" xmlns="http://www.w3.org/2000/svg">
<path fill-rule="evenodd" clip-rule="evenodd" d="M67.2535 0.137797C66.14 0.597247 65.8294 2.30774 66.701 3.18051C67.1413 3.62139 67.397 3.69317 68.8234 3.77741L70.4452 3.87313L62.1646 8.13299C25.7095 26.8868 20.2174 29.7601 19.9688 30.2086C19.5239 31.0117 19.6333 31.8841 20.2571 32.5078C21.108 33.3583 21.7057 33.2597 24.5766 31.7949C28.5181 29.7838 63.5715 11.7305 66.3327 10.2895C68.6041 9.10397 73.0131 6.84558 73.3784 6.68037C73.4615 6.64284 73.0848 7.44401 72.5412 8.46074C71.7014 10.0319 71.57 10.4153 71.6656 11.0157C71.878 12.3488 73.5119 13.0623 74.6029 12.2983C74.8268 12.1415 76.1389 9.86684 77.5183 7.24377C80.2567 2.03667 80.4037 1.55731 79.5645 0.581549L79.1025 0.0443753L73.3879 0.00455629C70.2449 -0.017459 67.4845 0.0424609 67.2535 0.137797ZM67.5986 17.4453C66.6079 17.9941 66.6339 17.5751 66.6267 33.0105C66.6217 43.7771 66.6776 47.5337 66.8488 47.9091C67.099 48.4578 67.902 48.9567 68.5352 48.9567C69.1683 48.9567 69.9714 48.4578 70.2215 47.9091C70.392 47.5354 70.4504 44.0335 70.4504 34.207V21.0068H78.4943H86.5382V57.5714V94.1359H78.4943H70.4504V79.6728C70.4504 63.9713 70.4801 64.4168 69.4024 63.9261C68.4197 63.4785 67.3487 63.8013 66.8929 64.6823C66.6638 65.1253 66.62 67.5296 66.62 79.6728V94.1359H63.7471H60.8743V65.6022C60.8743 34.8445 60.9199 36.2843 59.9272 35.7532C59.6875 35.6248 55.8756 35.556 49 35.556C42.1244 35.556 38.3125 35.6248 38.0728 35.7532C37.0801 36.2843 37.1257 34.8445 37.1257 65.6022V94.1359H34.2529H31.38V76.5141C31.38 57.3748 31.4205 58.1043 30.332 57.6087C29.614 57.2817 9.39742 57.2817 8.67941 57.6087C7.59099 58.1043 7.6314 57.3748 7.6314 76.5141V94.1359H4.55749C2.27168 94.1359 1.34836 94.2058 0.955931 94.4087C-0.318644 95.0677 -0.318644 97.033 0.955931 97.6919C1.75074 98.1027 96.2493 98.1027 97.0441 97.6919C98.3186 97.033 98.3186 95.0677 97.0441 94.4087C96.6516 94.2058 95.7283 94.1359 93.4425 94.1359H90.3686V56.4132C90.3686 15.3783 90.4368 17.9151 89.3206 17.4068C88.556 17.0586 68.2316 17.0946 67.5986 17.4453ZM13.7438 33.2176C13.2049 33.6989 13.0984 33.9265 13.0984 34.5989C13.0984 35.2712 13.2049 35.4988 13.7438 35.9801C14.3034 36.4799 14.4932 36.5423 15.1754 36.4508C16.2056 36.3128 16.8244 35.6177 16.8244 34.5989C16.8244 33.58 16.2056 32.8849 15.1754 32.7469C14.4932 32.6554 14.3034 32.7178 13.7438 33.2176ZM57.0439 66.7604V94.1359H49H40.9561V66.7604V39.3848H49H57.0439V66.7604ZM67.8434 54.6887C67.2686 54.9312 66.62 55.8186 66.62 56.3624C66.62 56.9769 67.1091 57.8951 67.567 58.1399C67.7697 58.2485 68.2054 58.3371 68.5352 58.3371C69.3365 58.3371 69.8122 58.0582 70.1612 57.3837C70.5871 56.5602 70.5159 55.9261 69.9237 55.2766C69.3583 54.6565 68.4971 54.413 67.8434 54.6887ZM27.5496 77.6723V94.1359H19.5057H11.4618V77.6723V61.2087H19.5057H27.5496V77.6723Z" fill="#DC2D3C"/>
</svg>
