<svg xmlns="http://www.w3.org/2000/svg" xml:space="preserve" width="228" height="47"><circle cx="9.302" cy="3.216" r="3.221" fill="#E55454" fill-rule="evenodd" clip-rule="evenodd"/><path fill="#666" fill-rule="evenodd" d="M30.509 23.503c-5.603 13.202-14.341 0-14.341 0 2.279 10.923-4.179 10.923-4.179 10.923l-.149.031V9.8c0-.766-.621-1.386-1.386-1.386h-2.31c-.766 0-1.386.62-1.386 1.386v35.572c0 .766.62 1.386 1.386 1.386h2.31c.765 0 1.386-.62 1.386-1.386v-9.43l.149.003c18.282.247 19.185-12.822 19.185-12.822l-.665.38zm-5.843 4.535c1.013 0 1.833-1.309 1.833-2.923s-.821-2.924-1.833-2.924-1.833 1.31-1.833 2.924.82 2.923 1.833 2.923z" clip-rule="evenodd"/><path fill="#0273C2" fill-rule="evenodd" d="M31.234 20.772c-.878-4.675-3.57-7.297-6.677-8.741 1.808-.869 3.477-1.409 4.916-1.533 0 0 .496-.892-.495-.892-.332 0-2.434.593-5.472 1.985-5.452-2.04-11.675-.895-11.675-.895v2.081c4.046-.963 7.289-.921 9.868-.313C15.648 15.527 7.059 21.321.73 31.11c-2.378 6.54 5.253 5.747 5.947 5.054 0 0 .815-.477.396-.693 0 0-7.433-.893-.099-9.117 4.988-5.594 10.938-10.678 16.043-13.518 2.838.967 4.729 2.662 5.88 4.343 1.695 2.475 1.618 4.909 1.618 4.909l.073 1.282.448.709c-.003.101.379-2.111.198-3.307z" clip-rule="evenodd"/><path fill="#333" d="M40.902 14.655h3.729c1.07 0 1.927.056 2.571.169.644.113 1.179.293 1.605.543.772.467 1.366 1.072 1.78 1.816.414.744.621 1.583.621 2.516 0 .885-.187 1.704-.561 2.456s-.895 1.35-1.563 1.792c-.467.314-1.024.542-1.672.682-.647.141-1.474.211-2.48.211h-2.305v7.386h-1.726V14.655zm1.726 1.726v6.698h2.546c1.416 0 2.462-.269 3.138-.809.676-.539 1.014-1.372 1.014-2.498 0-1.174-.34-2.033-1.02-2.577-.68-.543-1.772-.814-3.276-.814h-2.402zM60.498 32.227h-7.917V14.655h1.738v15.87h6.179v1.702zM62.829 32.227h-1.823l6.819-17.571h2.076l6.794 17.571h-1.846l-2.1-5.516h-7.82l-2.1 5.516zm9.317-7.096-3.331-8.822-3.283 8.822h6.614zM91.561 19.205c-.789-1.094-1.67-1.899-2.643-2.414-.974-.515-2.084-.772-3.331-.772-1.955 0-3.626.724-5.014 2.172-1.388 1.448-2.082 3.17-2.082 5.166 0 2.124.69 3.914 2.07 5.37s3.055 2.185 5.026 2.185c1.215 0 2.313-.254 3.295-.761.981-.507 1.834-1.263 2.559-2.269h2.051c-.805 1.497-1.882 2.653-3.234 3.47-1.352.816-2.868 1.225-4.549 1.225-2.583 0-4.737-.881-6.463-2.643-1.726-1.762-2.588-3.962-2.588-6.602 0-1.231.233-2.397.7-3.5s1.15-2.096 2.052-2.981a8.624 8.624 0 0 1 2.818-1.901c1.042-.43 2.17-.646 3.385-.646 1.746 0 3.316.427 4.712 1.279 1.396.853 2.5 2.06 3.313 3.621h-2.077zM97.968 22.536h7.386v1.738h-7.386v6.252h7.386v1.701H96.23V14.655h9.124v1.726h-7.386v6.155zM107.85 32.227V14.655h2.546l6.083 15.278 6.059-15.278h2.546v17.571h-1.653v-15.52l-6.179 15.52h-1.557l-6.179-15.52v15.52h-1.666zM129.667 22.536h7.386v1.738h-7.386v6.252h7.386v1.701h-9.124V14.655h9.124v1.726h-7.386v6.155zM151.195 30.127l-.205-15.472h1.714v17.571h-2.075l-9.643-15.496.192 15.496h-1.701V14.655h2.075l9.643 15.472zM159.04 32.227h-1.727V16.381h-3.512v-1.726h8.75v1.726h-3.512v15.846z"/><path fill="#E33737" d="M165.773 32.227h-1.726V14.655h1.726v17.572zM180.84 30.127l-.205-15.472h1.714v17.571h-2.075l-9.643-15.496.192 15.496h-1.701V14.655h2.075l9.643 15.472zM185.234 14.655h4.996c1.376 0 2.533.137 3.47.41a6.706 6.706 0 0 1 2.48 1.315 8.676 8.676 0 0 1 2.341 3.102 9.363 9.363 0 0 1 .833 3.922c0 1.552-.306 2.966-.917 4.242s-1.477 2.315-2.595 3.12a7.4 7.4 0 0 1-2.401 1.122c-.861.226-2.188.338-3.982.338h-4.225V14.655zm1.703 1.678v14.241h3.584c2.236 0 3.958-.628 5.165-1.883s1.811-3.033 1.811-5.334c0-1.15-.205-2.212-.615-3.186s-.998-1.79-1.763-2.45a5.142 5.142 0 0 0-1.918-1.068c-.709-.213-1.738-.32-3.09-.32h-3.174zM202.976 32.227h-1.726V14.655h1.726v17.572zM206.003 32.227h-1.822l6.818-17.571h2.076l6.794 17.571h-1.847l-2.1-5.516h-7.82l-2.099 5.516zm9.316-7.096-3.331-8.822-3.282 8.822h6.613z"/></svg>