<svg width="89" height="76" viewBox="0 0 89 76" fill="none" xmlns="http://www.w3.org/2000/svg">
<path fill-rule="evenodd" clip-rule="evenodd" d="M7.65587 0.163612C4.2852 0.849384 1.53639 3.25571 0.402281 6.51378L0 7.66911V32.7962V57.9233L0.402281 59.0787C1.69891 62.8033 4.94151 65.2699 8.91735 65.5563L10.3528 65.6595V70.1158C10.3528 74.9255 10.4118 75.2947 11.248 75.7239C11.9656 76.092 43.7134 76.092 44.431 75.7239C45.589 75.1294 45.589 73.3566 44.431 72.7621C44.0268 72.5547 41.5856 72.5161 28.8922 72.5161H13.8328V69.0622V65.6083H44.9869C78.8709 65.6083 76.8468 65.6675 77.3077 64.6633C77.4652 64.3205 77.5157 59.3432 77.5157 44.186V24.1615H81.5176H85.5195V48.3388V72.5161H72.2001C57.7397 72.5161 58.1602 72.4886 57.7139 73.461C57.451 74.0337 57.451 74.4523 57.7139 75.025C58.1622 76.0012 57.6469 75.9699 73.2527 75.9699C88.8585 75.9699 88.3433 76.0012 88.7915 75.025C88.9499 74.6803 88.9995 68.3061 88.9995 48.322C88.9995 19.7806 89.0546 21.3693 88.0474 20.9139C87.7272 20.7691 86.0887 20.7076 82.5534 20.7076H77.5157V16.2089C77.5157 11.3238 77.4535 10.9546 76.5636 10.5522C76.2157 10.3949 69.3268 10.3459 47.58 10.3459H19.0527V5.86393C19.0527 2.7568 18.989 1.24313 18.8447 0.929169C18.436 0.0385809 18.0833 -0.0175449 13.015 0.00317851C10.4503 0.0135402 8.03866 0.0857268 7.65587 0.163612ZM15.5727 25.0087V46.5795L11.5273 46.6527C6.80102 46.7384 6.25084 46.8653 3.85369 48.4242L3.38737 48.7275L3.43366 28.3711L3.47994 8.0145L3.93251 7.05673C4.49974 5.85667 5.30656 4.93552 6.29399 4.36131C7.67188 3.55983 8.28957 3.46191 12.0493 3.44965L15.5727 3.43808V25.0087ZM74.0357 37.9788V62.1578L41.0198 62.1129L8.00386 62.068L7.04688 61.6147C5.62759 60.9422 4.70627 60.0578 4.05274 58.74C3.54084 57.708 3.47994 57.4287 3.47994 56.1137C3.47994 54.8846 3.55545 54.4822 3.93842 53.6716C4.58308 52.3071 5.5037 51.3703 6.84365 50.715L7.99481 50.1521L12.9583 50.0636C15.6881 50.0149 18.0616 49.9084 18.2326 49.8267C19.073 49.4259 19.0527 49.8875 19.0527 31.2506V13.7998H46.5442H74.0357V37.9788ZM25.1617 20.9487C23.9956 21.59 24.0339 23.4166 25.2247 23.9551C25.943 24.2799 37.7003 24.2442 38.3411 23.9154C39.4991 23.321 39.4991 21.5481 38.3411 20.9537C37.6639 20.606 25.7926 20.6015 25.1617 20.9487ZM47.0853 20.9487C46.2362 21.4156 46.2089 21.6203 46.2023 27.5808C46.1957 33.6345 46.2334 33.903 47.1483 34.3168C47.4133 34.4366 48.4034 34.5232 49.5103 34.5232H51.4161V37.9771V41.431H46.8835C41.9616 41.431 41.5896 41.4926 41.1842 42.3759C41.0508 42.6666 40.9763 43.8155 40.9763 45.5838V48.3388H39.0536C36.9286 48.3388 36.3114 48.5275 35.9643 49.2837C35.6438 49.982 35.6776 57.1849 36.0043 57.8119C36.4472 58.6618 36.7391 58.7005 42.7163 58.7005C48.6934 58.7005 48.9854 58.6618 49.4282 57.8119C49.755 57.1849 49.7887 49.982 49.4682 49.2837C49.1211 48.5275 48.5039 48.3388 46.3789 48.3388H44.4562V46.6118V44.8849H53.1561H61.8559V46.6118V48.3388H59.9333C57.8082 48.3388 57.1911 48.5275 56.844 49.2837C56.5234 49.982 56.5572 57.1849 56.884 57.8119C57.3268 58.6618 57.6188 58.7005 63.5959 58.7005C67.5295 58.7005 69.2804 58.6404 69.6037 58.4941C70.4731 58.1009 70.5558 57.6693 70.5558 53.5196C70.5558 48.342 70.5537 48.3388 67.2417 48.3388H65.3359V45.567C65.3359 42.5386 65.2078 42.0098 64.3838 41.6373C64.0674 41.4942 62.5424 41.431 59.4118 41.431H54.8961V37.9771V34.5232H56.8187C58.9437 34.5232 59.5609 34.3344 59.908 33.5782C60.0554 33.2573 60.116 31.5195 60.116 27.6154C60.116 21.683 60.077 21.3932 59.2208 20.9537C58.5451 20.6069 47.7147 20.6024 47.0853 20.9487ZM56.636 27.6154V31.0693H53.1561H49.6761V27.6154V24.1615H53.1561H56.636V27.6154ZM25.1617 27.8565C23.9956 28.4978 24.0339 30.3244 25.2247 30.8629C25.943 31.1877 37.7003 31.152 38.3411 30.8232C39.4991 30.2288 39.4991 28.4559 38.3411 27.8615C37.6639 27.5138 25.7926 27.5093 25.1617 27.8565ZM25.1617 34.7642C23.9956 35.4056 24.0339 37.2322 25.2247 37.7707C25.943 38.0955 37.7003 38.0598 38.3411 37.731C39.4991 37.1366 39.4991 35.3637 38.3411 34.7693C37.6639 34.4216 25.7926 34.4171 25.1617 34.7642ZM46.1962 53.5196V55.2466H42.7163H39.2363V53.5196V51.7927H42.7163H46.1962V53.5196ZM67.0758 53.5196V55.2466H63.5959H60.116V53.5196V51.7927H63.5959H67.0758V53.5196ZM50.5653 72.7571C49.0569 73.5869 49.688 75.9699 51.4161 75.9699C52.2978 75.9699 53.1561 75.1263 53.1561 74.2597C53.1561 72.9632 51.7124 72.1259 50.5653 72.7571Z" fill="#A84DBF"/>
</svg>
